<svg xmlns="http://www.w3.org/2000/svg" xmlns:xlink="http://www.w3.org/1999/xlink" viewBox="0 0 973.55 973.55"><defs><style>.cls-1{fill:#f9d3b6;}.cls-2{fill:#0c1337;}.cls-3{fill:url(#linear-gradient);}.cls-4{fill:url(#linear-gradient-2);}.cls-5{fill:url(#linear-gradient-3);}.cls-6{fill:url(#linear-gradient-4);}</style><linearGradient id="linear-gradient" x1="359.93" y1="604.2" x2="525.57" y2="971.09" gradientUnits="userSpaceOnUse"><stop offset="0" stop-color="#fff"/><stop offset="0.48" stop-color="#fdfdfd"/><stop offset="0.7" stop-color="#f5f5f5"/><stop offset="0.87" stop-color="#e9e9e9"/><stop offset="1" stop-color="#d9d9d9"/></linearGradient><linearGradient id="linear-gradient-2" x1="382.75" y1="261.63" x2="667.41" y2="400.47" gradientUnits="userSpaceOnUse"><stop offset="0" stop-color="#fff"/><stop offset="0.56" stop-color="#fdfdfd"/><stop offset="0.76" stop-color="#f6f7f7"/><stop offset="0.91" stop-color="#ebebec"/><stop offset="1" stop-color="#dedfe0"/></linearGradient><linearGradient id="linear-gradient-3" x1="209.07" y1="331.26" x2="487.39" y2="213.12" gradientUnits="userSpaceOnUse"><stop offset="0" stop-color="#fbac18"/><stop offset="1" stop-color="#eb5623"/></linearGradient><linearGradient id="linear-gradient-4" x1="297.67" y1="302.16" x2="375.03" y2="436.16" gradientUnits="userSpaceOnUse"><stop offset="0" stop-color="#f99e36"/><stop offset="1" stop-color="#f7bd3b"/></linearGradient></defs><g id="background"><circle class="cls-1" cx="486.63" cy="486.63" r="485"/></g><g id="puffin"><path class="cls-2" d="M853.37,804Q776.26,741,699.22,678c-55.94-45.83-78.88-103.86-64.9-176,7.52-38.77,18.84-76.3,31.23-113.63-49.33,31.9-97.23,66.49-158,74.57-14.95,2-29.66,4.34-44.74,3.26-31.47,29.05-69.5,51.58-90.55,91a227.64,227.64,0,0,1,76.4,23.14c20.79,10.62,44.64,22.8,58.8,49a91.74,91.74,0,0,1,10.72,36.39c3.75,41.48,8,82.95,21.15,122.74,22.08,66.83,57,118.71,102.71,157.86A485.67,485.67,0,0,0,853.37,804Z"/><path class="cls-3" d="M539.28,788.35c-13.14-39.79-17.4-81.26-21.15-122.74a91.74,91.74,0,0,0-10.72-36.39c-14.16-26.18-38-38.36-58.8-49a227.64,227.64,0,0,0-76.4-23.14c-62.49,51.74-83,120.71-68.15,196.48,15.46,78.84,51.11,148.77,100.21,211.07A488.12,488.12,0,0,0,642,946.21C596.26,907.06,561.36,855.18,539.28,788.35Z"/><path class="cls-4" d="M665.55,388.3c-49.33,31.9-97.23,66.49-158,74.57-14.95,2-29.66,4.34-44.74,3.26a116.87,116.87,0,0,1-45.86-34.42,114.1,114.1,0,0,1-16.53-28.21c-15.9-22.94-23.59-49.09-29.71-75.86.4-10.33-.32-20.84,1.38-30.94,6-35.48,14.31-70,48-91C526.87,159.55,595.8,176.3,671.2,266.59c4.32,5.18,7.42,11.8,14.74,13.87A114.13,114.13,0,0,1,665.55,388.3Z"/><path class="cls-2" d="M420,205.66a106.21,106.21,0,0,1,28-33.24c43.88-34,101.42-19.95,117.68-16,11.74,2.87,42.72,12.29,72.48,38.44,25.66,22.56,42.94,50.88,47.8,85.57-7.32-2.07-10.42-8.69-14.74-13.87C595.8,176.3,526.87,159.55,420,205.66Z"/><path class="cls-5" d="M420,205.66c-33.68,21-42,55.56-48,91-1.7,10.1-1,20.61-1.38,30.94L254,327.4c-14.67-.74-29.57,2.43-47.82-3.09,30.75-45.79,63.78-72.24,86.45-87.22,19.69-13,36.7-20.77,66.14-34a1071.06,1071.06,0,0,1,106.79-41.46A201.64,201.64,0,0,0,420,205.66Z"/><path class="cls-6" d="M254,327.4l116.71.24c6.12,26.77,13.81,52.92,29.71,75.86q3.44,7,6.88,14.06A364,364,0,0,1,254,327.4Z"/><path class="cls-2" d="M454.24,279.23c-.58-.68-11.23-13.36-6.46-27.12,3.76-10.89,15.39-17.3,16.48-16.34.23.2-.09.71-.35,1.94-.72,3.34.19,6.13,1,8.56,2.23,6.87,8.87,13.33,11.27,15.64a72.62,72.62,0,0,0,11.68,9.18,85.29,85.29,0,0,1-33.59,8.14Z"/></g></svg>